<svg width="100" height="100" viewBox="0 0 100 100" fill="none" xmlns="http://www.w3.org/2000/svg">
<circle cx="50" cy="50" r="50" fill="#051625"/>
<mask id="mask0" mask-type="alpha" maskUnits="userSpaceOnUse" x="0" y="0" width="100" height="100">
<circle cx="50" cy="50" r="50" fill="#051625"/>
</mask>
<g mask="url(#mask0)">
<path d="M25 141V56C25 43.5736 35.0736 33.5 47.5 33.5C59.9264 33.5 70 43.5736 70 56V59.598C70 64.1891 72.4127 68.4424 76.3533 70.7981L81.1485 73.6649C102.765 86.5878 116 109.92 116 135.105C116 144.988 107.988 153 98.1046 153H37C30.3726 153 25 147.627 25 141Z" fill="#FFE76A"/>
<path d="M25 17L39 35V40C39 47.732 32.732 54 25 54V17Z" fill="#FFE76A"/>
<path d="M70 17L56 35V46C56 53.732 62.268 60 70 60V17Z" fill="#12B8A5"/>
<path fill-rule="evenodd" clip-rule="evenodd" d="M46 54C46 58.4183 42.4183 62 38 62C33.5817 62 30 58.4183 30 54C30 49.5817 33.5817 46 38 46C40.9764 46 43.5732 47.6255 44.9511 50.0371C45.2984 49.77 45.68 49.549 46.0866 49.3806C46.6932 49.1293 47.3434 49 48 49C48.6566 49 49.3068 49.1293 49.9134 49.3806C50.32 49.549 50.7016 49.77 51.0489 50.0371C52.4268 47.6255 55.0236 46 58 46C62.4183 46 66 49.5817 66 54C66 58.4183 62.4183 62 58 62C53.5817 62 50 58.4183 50 54C50 53.7374 49.9483 53.4773 49.8478 53.2346C49.7472 52.992 49.5999 52.7715 49.4142 52.5858C49.2285 52.4001 49.008 52.2528 48.7654 52.1522C48.5227 52.0517 48.2626 52 48 52C47.7374 52 47.4773 52.0517 47.2346 52.1522C46.992 52.2528 46.7715 52.4001 46.5858 52.5858C46.4001 52.7715 46.2528 52.992 46.1522 53.2346C46.0517 53.4773 46 53.7374 46 54ZM33.2 54C33.2 56.651 35.349 58.8 38 58.8C40.651 58.8 42.8 56.651 42.8 54C42.8 51.349 40.651 49.2 38 49.2C35.349 49.2 33.2 51.349 33.2 54ZM58 58.8C55.349 58.8 53.2 56.651 53.2 54C53.2 51.349 55.349 49.2 58 49.2C60.651 49.2 62.8 51.349 62.8 54C62.8 56.651 60.651 58.8 58 58.8Z" fill="#051625"/>
</g>
</svg>
