<svg width="60" height="60" viewBox="0 0 60 60" fill="none" xmlns="http://www.w3.org/2000/svg">
<path fill-rule="evenodd" clip-rule="evenodd" d="M60 30C60 46.5 46.5 60 30 60C13.5 60 0 46.5 0 30C0 13.5 13.5 0 30 0C46.5 0 60 13.5 60 30ZM54 30C54 16.8 43.2 6 30 6C16.8 6 6 16.8 6 30C6 43.2 16.8 54 30 54C43.2 54 54 43.2 54 30ZM45 22.5C45 20.1 42.9 18 40.5 18C38.1 18 36 20.1 36 22.5C36 24.9 38.1 27 40.5 27C42.9 27 45 24.9 45 22.5ZM24 22.5C24 24.9 21.9 27 19.5 27C17.1 27 15 24.9 15 22.5C15 20.1 17.1 18 19.5 18C21.9 18 24 20.1 24 22.5ZM42.5613 41.4387C39.8829 38.1636 35.2572 36 30 36C24.7428 36 20.1171 38.1636 17.439 41.4387L21.6906 45.6906C23.0475 43.5234 26.2569 42 30 42C33.7431 42 36.9525 43.5234 38.3091 45.6906L42.5613 41.4387Z" fill="#D5373E"/>
</svg>
