<svg width="32" height="32" viewBox="0 0 32 32" fill="none" xmlns="http://www.w3.org/2000/svg">
<path fill-rule="evenodd" clip-rule="evenodd" d="M16 2.66663C8.63669 2.66663 2.66669 8.63663 2.66669 16C2.66669 23.3566 8.63669 29.3333 16 29.3333C23.3567 29.3333 29.3334 23.3566 29.3334 16C29.3334 8.63663 23.3567 2.66663 16 2.66663ZM16 11.1817C18.0834 12.53 20.5567 13.33 23.2267 13.33C24.2616 13.33 25.2634 13.2133 26.22 12.985C26.5 13.9284 26.6634 14.9449 26.6634 16C26.6634 21.8784 21.8783 26.6633 16 26.6633C12.0018 26.6633 8.51175 24.45 6.68335 21.1817L8.99335 18.6616V17.3266C8.99335 16.41 9.74335 15.66 10.66 15.66C11.5851 15.66 12.3267 16.41 12.3267 17.3266V18.6616H16V11.1817ZM19.6651 17.3266C19.6651 16.41 20.4067 15.66 21.3316 15.66C22.25 15.66 22.9983 16.41 22.9983 17.3266C22.9983 18.2517 22.25 18.9933 21.3316 18.9933C20.4067 18.9933 19.6651 18.2517 19.6651 17.3266Z" fill="white"/>
</svg>
