<svg width="72" height="72" viewBox="0 0 72 72" fill="none" xmlns="http://www.w3.org/2000/svg">
<path fill-rule="evenodd" clip-rule="evenodd" d="M66 36C66 52.5 52.5 66 36 66C19.5 66 6 52.5 6 36C6 19.5 19.5 6 36 6C52.5 6 66 19.5 66 36ZM60 36C60 22.8 49.2 12 36 12C22.8 12 12 22.8 12 36C12 49.2 22.8 60 36 60C49.2 60 60 49.2 60 36ZM51 28.5C51 26.1 48.9 24 46.5 24C44.1 24 42 26.1 42 28.5C42 30.9 44.1 33 46.5 33C48.9 33 51 30.9 51 28.5ZM30 28.5C30 30.9 27.9 33 25.5 33C23.1 33 21 30.9 21 28.5C21 26.1 23.1 24 25.5 24C27.9 24 30 26.1 30 28.5ZM48.5613 47.4387C45.8829 44.1636 41.2572 42 36 42C30.7428 42 26.1171 44.1636 23.439 47.4387L27.6906 51.6906C29.0475 49.5234 32.2569 48 36 48C39.7431 48 42.9525 49.5234 44.3091 51.6906L48.5613 47.4387Z" fill="#F44336"/>
</svg>
