<svg width="1248" height="448" viewBox="0 0 1248 448" fill="none" xmlns="http://www.w3.org/2000/svg">
<path d="M296.829 311.34V199.205C296.829 182.812 310.118 169.522 326.511 169.522C342.905 169.522 356.194 182.812 356.194 199.205V203.952C356.194 210.008 359.377 215.62 364.576 218.727L370.902 222.509C399.419 239.558 416.879 270.338 416.879 303.563C416.879 316.601 406.31 327.171 393.271 327.171H312.659C303.916 327.171 296.829 320.084 296.829 311.34Z" fill="#FFE76A"/>
<path d="M296.829 147.755L315.298 171.501V178.097C315.298 188.298 307.029 196.567 296.829 196.567V196.567V147.755Z" fill="#FFE76A"/>
<path d="M356.194 147.755L337.725 171.501V186.013C337.725 196.213 345.994 204.482 356.194 204.482V204.482V147.755Z" fill="#12B8A5"/>
<path fill-rule="evenodd" clip-rule="evenodd" d="M340.364 207.121C346.192 207.121 350.918 202.395 350.918 196.567C350.918 190.738 346.192 186.013 340.364 186.013C336.437 186.013 333.011 188.157 331.193 191.339C330.735 190.986 330.232 190.695 329.696 190.473C328.895 190.141 328.037 189.97 327.171 189.97C326.305 189.97 325.447 190.141 324.647 190.473C324.111 190.695 323.607 190.986 323.149 191.339C321.331 188.157 317.905 186.013 313.979 186.013C308.15 186.013 303.425 190.738 303.425 196.567C303.425 202.395 308.15 207.121 313.979 207.121C319.807 207.121 324.533 202.395 324.533 196.567L324.533 196.567C324.533 196.22 324.601 195.877 324.734 195.557C324.866 195.237 325.061 194.946 325.306 194.701C325.551 194.456 325.841 194.262 326.162 194.129C326.482 193.996 326.825 193.928 327.171 193.928C327.518 193.928 327.861 193.996 328.181 194.129C328.501 194.262 328.792 194.456 329.037 194.701C329.282 194.946 329.476 195.237 329.609 195.557C329.741 195.877 329.81 196.22 329.81 196.567C329.81 202.395 334.535 207.121 340.364 207.121ZM340.364 202.899C336.866 202.899 334.031 200.064 334.031 196.567C334.031 193.069 336.866 190.234 340.364 190.234C343.861 190.234 346.696 193.069 346.696 196.567C346.696 200.064 343.861 202.899 340.364 202.899ZM307.646 196.567C307.646 200.064 310.481 202.899 313.979 202.899C317.476 202.899 320.311 200.064 320.311 196.567C320.311 193.069 317.476 190.234 313.979 190.234C310.481 190.234 307.646 193.069 307.646 196.567Z" fill="#051625"/>
<path d="M427.488 242.685C430.579 239.594 435.648 239.565 438.243 243.083C444.891 252.099 448.541 263.062 448.541 274.402C448.541 288.397 442.981 301.819 433.085 311.715C423.189 321.612 409.767 327.171 395.772 327.171C384.432 327.171 373.469 323.522 364.453 316.873C360.935 314.278 360.964 309.21 364.055 306.118V306.118C367.146 303.027 372.126 303.115 375.804 305.478C381.715 309.276 388.637 311.34 395.772 311.34C405.568 311.34 414.964 307.449 421.891 300.521C428.818 293.594 432.71 284.198 432.71 274.402C432.71 267.267 430.646 260.345 426.848 254.434C424.485 250.756 424.397 245.776 427.488 242.685V242.685Z" fill="#FFE76A"/>
<rect opacity="0.3" x="216.355" y="201.844" width="19.7886" height="121.37" fill="white"/>
<rect opacity="0.3" width="15.031" height="121.238" transform="matrix(0.995172 0.0981449 -0.0649678 0.997887 246.742 201.3)" fill="white"/>
<rect opacity="0.3" width="15.031" height="103.627" transform="matrix(0.981327 0.192346 -0.159577 0.987185 464.238 218.721)" fill="white"/>
<rect opacity="0.3" width="15.031" height="92.0639" transform="matrix(0.993224 0.116216 -0.0830932 0.996542 482.492 230.331)" fill="white"/>
<rect opacity="0.3" width="15.031" height="118.684" transform="matrix(1 0 0.0332835 0.999446 498.062 204.482)" fill="white"/>
<rect opacity="0.3" x="265.167" y="187.332" width="19.7886" height="135.882" fill="white"/>
<rect opacity="0.3" x="889.711" y="258.571" width="19.7886" height="121.37" transform="rotate(90 889.711 258.571)" fill="white"/>
<rect opacity="0.3" width="15.031" height="121.238" transform="matrix(-0.098145 0.995172 -0.997887 -0.0649678 890.254 288.957)" fill="white"/>
<rect opacity="0.3" width="15.031" height="76.8113" transform="matrix(-0.981327 0.192346 0.159577 0.987185 965.921 250.47)" fill="white"/>
<rect opacity="0.3" width="15.031" height="92.0639" transform="matrix(-1 0 -0.0332835 0.999446 928.37 236.348)" fill="white"/>
<rect opacity="0.3" width="15.031" height="118.684" transform="matrix(-1 0 -0.0332835 0.999446 949.044 209.759)" fill="white"/>
<rect opacity="0.3" x="904.223" y="307.383" width="19.7886" height="135.882" transform="rotate(90 904.223 307.383)" fill="white"/>
<path d="M857.835 138.52L907.196 138.52C917.64 138.52 926.105 146.986 926.105 157.429L926.105 168.3C926.105 183.182 914.041 195.247 899.158 195.247C891.716 195.247 885.684 201.28 885.684 208.721L885.684 232.186C885.684 246.758 873.871 258.571 859.299 258.571L797.809 258.571C781.234 258.571 767.797 245.134 767.797 228.558C767.797 178.831 808.108 138.52 857.835 138.52Z" fill="#FFE76A"/>
<path d="M926.105 113.455L907.636 138.52V143.797C907.636 153.997 915.905 162.266 926.105 162.266V162.266V113.455Z" fill="#FFE76A"/>
<path d="M866.74 114.774L885.21 138.52V143.797C885.21 153.997 876.941 162.266 866.74 162.266V162.266V114.774Z" fill="#12B8A5"/>
<path fill-rule="evenodd" clip-rule="evenodd" d="M886.529 176.778C892.357 176.778 897.082 172.053 897.082 166.224H897.082C897.082 165.878 897.151 165.535 897.283 165.214C897.416 164.894 897.61 164.603 897.855 164.358C898.1 164.113 898.391 163.919 898.711 163.786C899.031 163.654 899.374 163.586 899.721 163.586C900.067 163.586 900.411 163.654 900.731 163.786C901.051 163.919 901.342 164.113 901.587 164.358C901.832 164.603 902.026 164.894 902.159 165.214C902.291 165.535 902.359 165.878 902.359 166.224C902.359 172.053 907.085 176.778 912.913 176.778C918.742 176.778 923.467 172.053 923.467 166.224C923.467 160.395 918.742 155.67 912.913 155.67C908.987 155.67 905.561 157.815 903.743 160.996C903.285 160.644 902.782 160.352 902.245 160.13C901.445 159.799 900.587 159.628 899.721 159.628C898.855 159.628 897.997 159.799 897.197 160.13C896.66 160.352 896.157 160.644 895.699 160.996C893.881 157.815 890.455 155.67 886.529 155.67C880.7 155.67 875.975 160.395 875.975 166.224C875.975 172.053 880.7 176.778 886.529 176.778ZM880.196 166.224C880.196 169.721 883.031 172.556 886.529 172.556C890.026 172.556 892.861 169.721 892.861 166.224C892.861 162.727 890.026 159.892 886.529 159.892C883.031 159.892 880.196 162.727 880.196 166.224ZM912.913 172.556C909.416 172.556 906.581 169.721 906.581 166.224C906.581 162.727 909.416 159.892 912.913 159.892C916.411 159.892 919.246 162.727 919.246 166.224C919.246 169.721 916.411 172.556 912.913 172.556Z" fill="#051625"/>
<path d="M886.583 283.691C889.674 286.782 889.703 291.851 886.185 294.446C877.169 301.095 866.206 304.744 854.866 304.744C840.871 304.744 827.449 299.185 817.553 289.288C807.656 279.392 802.097 265.97 802.097 251.975C802.097 240.635 805.746 229.672 812.395 220.656C814.99 217.138 820.058 217.167 823.15 220.258V220.258C826.241 223.349 826.152 228.329 823.789 232.007C819.992 237.918 817.928 244.84 817.928 251.975C817.928 261.771 821.819 271.167 828.747 278.094C835.674 285.022 845.069 288.913 854.866 288.913C862.001 288.913 868.923 286.849 874.834 283.051C878.512 280.688 883.492 280.6 886.583 283.691V283.691Z" fill="#FFE76A"/>
<path d="M566.428 259.478C572.311 259.478 577.644 260.863 582.429 263.633C587.292 266.324 591.096 270.163 593.841 275.149C596.586 280.056 597.959 285.794 597.959 292.363C597.959 298.932 596.586 304.71 593.841 309.696C591.096 314.603 587.292 318.441 582.429 321.211C577.644 323.902 572.311 325.248 566.428 325.248C557.722 325.248 551.094 322.478 546.545 316.937V324.298H529.015V236.209H547.368V267.195C551.996 262.05 558.349 259.478 566.428 259.478ZM563.251 310.052C567.958 310.052 571.801 308.469 574.781 305.303C577.84 302.058 579.37 297.745 579.37 292.363C579.37 286.981 577.84 282.707 574.781 279.541C571.801 276.296 567.958 274.674 563.251 274.674C558.545 274.674 554.663 276.296 551.604 279.541C548.623 282.707 547.133 286.981 547.133 292.363C547.133 297.745 548.623 302.058 551.604 305.303C554.663 308.469 558.545 310.052 563.251 310.052Z" fill="white"/>
<path d="M604.363 260.428H622.717V324.298H604.363V260.428ZM613.54 251.524C610.167 251.524 607.422 250.534 605.304 248.556C603.186 246.577 602.127 244.124 602.127 241.195C602.127 238.267 603.186 235.813 605.304 233.835C607.422 231.856 610.167 230.867 613.54 230.867C616.912 230.867 619.658 231.817 621.775 233.716C623.893 235.616 624.952 237.99 624.952 240.839C624.952 243.926 623.893 246.498 621.775 248.556C619.658 250.534 616.912 251.524 613.54 251.524Z" fill="white"/>
<path d="M633.868 236.209H652.222V324.298H633.868V236.209Z" fill="white"/>
<path d="M757.243 260.428L728.653 328.216C725.751 335.576 722.143 340.76 717.829 343.768C713.594 346.775 708.456 348.279 702.417 348.279C699.123 348.279 695.868 347.765 692.652 346.736C689.436 345.707 686.808 344.282 684.769 342.462L691.475 329.284C692.887 330.551 694.495 331.54 696.299 332.252C698.181 332.964 700.025 333.321 701.829 333.321C704.339 333.321 706.378 332.687 707.947 331.421C709.515 330.234 710.927 328.216 712.182 325.366L712.417 324.773L685.004 260.428H703.946L721.712 303.76L739.595 260.428H757.243Z" fill="white"/>
<path d="M657.901 242.441L676.134 240.206L686.103 322.885L667.87 325.12L657.901 242.441Z" fill="white"/>
</svg>
