<svg width="158" height="160" viewBox="0 0 158 160" fill="none" xmlns="http://www.w3.org/2000/svg">
<path d="M96.25 2.9833e-06L133.667 4.61884e-06C141.583 4.96486e-06 148 6.41726 148 14.3333L148 22.5732C148 33.8546 138.855 43 127.573 43C121.933 43 117.36 47.5727 117.36 53.2134L117.36 71C117.36 82.0457 108.406 91 97.3598 91L50.75 91C38.1855 91 28 80.8145 28 68.25C28 30.5566 58.5566 1.33567e-06 96.25 2.9833e-06Z" fill="#FFE76A"/>
<path d="M158 2.5L134 0V4C134 11.732 140.268 18 148 18L158 2.5Z" fill="#FFE76A"/>
<path d="M90 5.5L117 0V4C117 11.732 110.732 18 103 18L90 5.5Z" fill="#12B8A5"/>
<path fill-rule="evenodd" clip-rule="evenodd" d="M126 25C126 29.4183 122.418 33 118 33C113.582 33 110 29.4183 110 25C110 20.5817 113.582 17 118 17C120.976 17 123.573 18.6255 124.951 21.0371C125.298 20.77 125.68 20.549 126.087 20.3806C126.693 20.1293 127.343 20 128 20C128.657 20 129.307 20.1293 129.913 20.3806C130.32 20.549 130.702 20.77 131.049 21.0371C132.427 18.6255 135.024 17 138 17C142.418 17 146 20.5817 146 25C146 29.4183 142.418 33 138 33C133.582 33 130 29.4183 130 25C130 24.7374 129.948 24.4773 129.848 24.2346C129.747 23.992 129.6 23.7715 129.414 23.5858C129.228 23.4001 129.008 23.2528 128.765 23.1522C128.523 23.0517 128.263 23 128 23C127.737 23 127.477 23.0517 127.235 23.1522C126.992 23.2528 126.772 23.4001 126.586 23.5858C126.4 23.7715 126.253 23.992 126.152 24.2346C126.052 24.4773 126 24.7374 126 25ZM113.2 25C113.2 27.651 115.349 29.8 118 29.8C120.651 29.8 122.8 27.651 122.8 25C122.8 22.349 120.651 20.2 118 20.2C115.349 20.2 113.2 22.349 113.2 25ZM138 29.8C135.349 29.8 133.2 27.651 133.2 25C133.2 22.349 135.349 20.2 138 20.2C140.651 20.2 142.8 22.349 142.8 25C142.8 27.651 140.651 29.8 138 29.8Z" fill="#051625"/>
<path d="M38.0636 140.069C36.9691 142.605 34.0058 143.799 31.6268 142.397C24.0119 137.909 18.053 130.996 14.7575 122.693C10.8435 112.833 11.0069 101.822 15.2115 92.082C19.4162 82.3421 27.3178 74.6715 37.1781 70.7576C45.4804 67.462 54.5987 67.0571 63.087 69.5214C65.7389 70.2913 66.9021 73.2669 65.8076 75.8021C64.7132 78.3374 61.7734 79.4603 59.0917 78.8016C53.0745 77.3236 46.7023 77.736 40.8674 80.0521C33.4723 82.9876 27.5461 88.7405 24.3926 96.0454C21.239 103.35 21.1165 111.609 24.052 119.004C26.3681 124.839 30.4381 129.759 35.6405 133.125C37.9591 134.624 39.1581 137.534 38.0636 140.069Z" fill="#FFE76A"/>
<path fill-rule="evenodd" clip-rule="evenodd" d="M121.761 45.5223L117.5 37L113.239 45.5223C112.464 46.47 112 47.6807 112 49C112 52.0376 114.462 54.5 117.5 54.5C120.538 54.5 123 52.0376 123 49C123 47.6807 122.536 46.47 121.761 45.5223Z" fill="#12B8A5"/>
</svg>
