<svg width="24" height="24" viewBox="0 0 24 24" fill="none" xmlns="http://www.w3.org/2000/svg">
<path d="M10.7148 3.10526C11.2978 2.13653 12.7022 2.13653 13.2852 3.10526L15.0846 6.09524C15.4337 6.67527 16.003 7.08895 16.6626 7.24169L20.0622 8.02906C21.1637 8.28417 21.5977 9.61987 20.8566 10.4737L18.569 13.109C18.1252 13.6202 17.9077 14.2895 17.9662 14.964L18.268 18.4406C18.3657 19.567 17.2295 20.3925 16.1884 19.9514L12.9752 18.5901C12.3519 18.3261 11.6481 18.3261 11.0248 18.5901L7.81156 19.9514C6.77051 20.3925 5.63429 19.567 5.73204 18.4406L6.03377 14.964C6.0923 14.2895 5.87482 13.6202 5.43105 13.109L3.14345 10.4737C2.40228 9.61987 2.83628 8.28417 3.93775 8.02906L7.33744 7.24169C7.99695 7.08895 8.56632 6.67527 8.91539 6.09524L10.7148 3.10526Z" stroke="#E0E0E0"/>
</svg>
