<svg width="24" height="24" viewBox="0 0 24 24" fill="none" xmlns="http://www.w3.org/2000/svg">
<path d="M10.2864 2.84744C11.0637 1.5558 12.9363 1.5558 13.7136 2.84744L15.513 5.83743C15.7923 6.30145 16.2478 6.63239 16.7754 6.75458L20.1751 7.54196C21.6437 7.88209 22.2224 9.66304 21.2341 10.8015L18.9465 13.4367C18.5915 13.8457 18.4175 14.3812 18.4644 14.9207L18.7661 18.3973C18.8964 19.8992 17.3815 20.9999 15.9934 20.4118L12.7802 19.0505C12.2815 18.8393 11.7185 18.8393 11.2198 19.0505L8.00661 20.4118C6.61854 20.9999 5.10358 19.8992 5.23392 18.3973L5.53564 14.9207C5.58247 14.3812 5.40848 13.8457 5.05346 13.4367L2.76586 10.8015C1.77765 9.66304 2.35631 7.88209 3.82494 7.54196L7.22463 6.75458C7.75223 6.63239 8.20773 6.30145 8.48698 5.83743L10.2864 2.84744Z" fill="#FFE76A"/>
</svg>
