<svg width="24" height="24" viewBox="0 0 24 24" fill="none" xmlns="http://www.w3.org/2000/svg">
<path d="M10.7148 3.10526C11.2978 2.13653 12.7022 2.13653 13.2852 3.10526L15.0846 6.09524C15.4337 6.67527 16.003 7.08895 16.6626 7.24169L20.0622 8.02906C21.1637 8.28417 21.5977 9.61987 20.8566 10.4737L18.569 13.109C18.1252 13.6202 17.9077 14.2895 17.9662 14.964L18.268 18.4406C18.3657 19.567 17.2295 20.3925 16.1884 19.9514L12.9752 18.5901C12.3519 18.3261 11.6481 18.3261 11.0248 18.5901L7.81156 19.9514C6.77051 20.3925 5.63429 19.567 5.73204 18.4406L6.03377 14.964C6.0923 14.2895 5.87482 13.6202 5.43105 13.109L3.14345 10.4737C2.40228 9.61987 2.83628 8.28417 3.93775 8.02906L7.33744 7.24169C7.99695 7.08895 8.56632 6.67527 8.91539 6.09524L10.7148 3.10526Z" stroke="#E0E0E0"/>
<mask id="mask0" mask-type="alpha" maskUnits="userSpaceOnUse" x="0" y="0" width="12" height="24">
<rect width="12" height="24" fill="#C4C4C4"/>
</mask>
<g mask="url(#mask0)">
<path d="M10.2864 2.84744C11.0637 1.5558 12.9363 1.5558 13.7136 2.84744L15.513 5.83743C15.7923 6.30145 16.2478 6.63239 16.7754 6.75458L20.1751 7.54196C21.6437 7.88209 22.2224 9.66304 21.2341 10.8015L18.9465 13.4367C18.5915 13.8457 18.4175 14.3812 18.4644 14.9207L18.7661 18.3973C18.8964 19.8992 17.3815 20.9999 15.9934 20.4118L12.7802 19.0505C12.2815 18.8393 11.7185 18.8393 11.2198 19.0505L8.00661 20.4118C6.61854 20.9999 5.10358 19.8992 5.23392 18.3973L5.53564 14.9207C5.58247 14.3812 5.40848 13.8457 5.05346 13.4367L2.76586 10.8015C1.77765 9.66304 2.35631 7.88209 3.82494 7.54196L7.22463 6.75458C7.75223 6.63239 8.20773 6.30145 8.48698 5.83743L10.2864 2.84744Z" fill="#FFE76A"/>
</g>
</svg>
